<?xml version="1.0" encoding="UTF-8" standalone="no"?>
<!-- Created with Inkscape (http://www.inkscape.org/) -->

<svg
   xmlns:dc="http://purl.org/dc/elements/1.1/"
   xmlns:cc="http://creativecommons.org/ns#"
   xmlns:rdf="http://www.w3.org/1999/02/22-rdf-syntax-ns#"
   xmlns:svg="http://www.w3.org/2000/svg"
   xmlns="http://www.w3.org/2000/svg"
   xmlns:sodipodi="http://sodipodi.sourceforge.net/DTD/sodipodi-0.dtd"
   xmlns:inkscape="http://www.inkscape.org/namespaces/inkscape"
   width="600mm"
   height="210.46167mm"
   viewBox="0 0 600 210.46167"
   version="1.1"
   id="svg8"
   inkscape:version="0.92.4 (5da689c313, 2019-01-14)"
   sodipodi:docname="sl0.svg"
   inkscape:export-filename="C:\xampp\htdocs\dannke\eddysworld\tema.d\one.d\img\sl0.svg.png"
   inkscape:export-xdpi="96"
   inkscape:export-ydpi="96">
  <defs
     id="defs2" />
  <sodipodi:namedview
     id="base"
     pagecolor="#ffffff"
     bordercolor="#666666"
     borderopacity="1.0"
     inkscape:pageopacity="0.0"
     inkscape:pageshadow="2"
     inkscape:zoom="0.24748738"
     inkscape:cx="292.17934"
     inkscape:cy="432.87792"
     inkscape:document-units="mm"
     inkscape:current-layer="layer1"
     showgrid="false"
     inkscape:window-width="1366"
     inkscape:window-height="746"
     inkscape:window-x="-8"
     inkscape:window-y="-8"
     inkscape:window-maximized="1"
     inkscape:snap-nodes="false"
     inkscape:object-paths="false"
     fit-margin-top="0"
     fit-margin-left="0"
     fit-margin-right="0"
     fit-margin-bottom="0" />
  <metadata
     id="metadata5">
    <rdf:RDF>
      <cc:Work
         rdf:about="">
        <dc:format>image/svg+xml</dc:format>
        <dc:type
           rdf:resource="http://purl.org/dc/dcmitype/StillImage" />
        <dc:title />
      </cc:Work>
    </rdf:RDF>
  </metadata>
  <g
     inkscape:label="Camada 1"
     inkscape:groupmode="layer"
     id="layer1"
     transform="translate(-189.32867,-51.987106)">
    <g
       id="g39"
       style="opacity:0.59799978">
      <path
         sodipodi:nodetypes="ccccc"
         inkscape:connector-curvature="0"
         id="path30"
         d="m 225.67733,183.33699 -2.6727,-167.310717 620.0653,5.879931 -3.20724,306.825416 z"
         style="fill:#4d4d4d;stroke:none;stroke-width:0.26458332px;stroke-linecap:butt;stroke-linejoin:miter;stroke-opacity:1" />
      <path
         sodipodi:nodetypes="ccccc"
         inkscape:connector-curvature="0"
         id="path32"
         d="m 225.67733,181.19884 c -4.27632,1.06908 -187.08867,51.31575 -187.08867,51.31575 L 64.246533,-17.649687 226.21186,15.491736 Z"
         style="fill:#808080;stroke:none;stroke-width:0.26458332px;stroke-linecap:butt;stroke-linejoin:miter;stroke-opacity:1" />
      <path
         inkscape:connector-curvature="0"
         id="path34"
         d="M 38.58866,232.51459 639.41055,402.498 666.13749,285.96849 225.67733,181.19884 Z"
         style="fill:#b3b3b3;stroke:none;stroke-width:0.26458332px;stroke-linecap:butt;stroke-linejoin:miter;stroke-opacity:1" />
    </g>
    <g
       id="g49"
       transform="translate(204.25905)">
      <path
         sodipodi:nodetypes="cccccc"
         inkscape:connector-curvature="0"
         id="path10"
         d="m 41.577381,62.654761 v 64.255949 l 23.434524,-0.75595 c 8.819444,-19.0184 17.638889,-15.93914 26.458333,-0.75595 11.895522,-7.29818 26.276172,-2.17072 40.065472,0 -31.22525,-14.01759 -19.4068,-67.549876 -89.958329,-62.744049 z"
         style="fill:#4d4d4d;stroke:none;stroke-width:0.26458332px;stroke-linecap:butt;stroke-linejoin:miter;stroke-opacity:1" />
      <path
         sodipodi:nodetypes="ccccc"
         inkscape:connector-curvature="0"
         id="path43"
         d="M 89.691038,113.84046 88.10723,259.96024 c 1.634189,3.38414 3.268377,3.53769 4.902566,-0.91252 l 1.256372,-144.70587 z"
         style="fill:#550000;stroke:none;stroke-width:0.26458332px;stroke-linecap:butt;stroke-linejoin:miter;stroke-opacity:1" />
      <path
         sodipodi:nodetypes="ccccc"
         inkscape:connector-curvature="0"
         id="path12"
         d="m 88.446426,111.98065 -0.377975,30.2381 h 6.803572 l 0.566965,-29.10417 c -2.330854,-2.64438 -4.661708,-2.38736 -6.992562,-1.13393 z"
         style="fill:#666666;stroke:none;stroke-width:0.26458332px;stroke-linecap:butt;stroke-linejoin:miter;stroke-opacity:1" />
      <ellipse
         style="stroke:none;stroke-width:0.26458332"
         ry="2.9293153"
         rx="2.6458333"
         cy="121.14658"
         cx="57.641369"
         id="path33" />
      <path
         sodipodi:nodetypes="cc"
         inkscape:connector-curvature="0"
         id="path37"
         d="m 57.730217,121.13665 -6.752151,51.36487"
         style="fill:none;stroke:#000000;stroke-width:0.26458332px;stroke-linecap:butt;stroke-linejoin:miter;stroke-opacity:1" />
      <path
         inkscape:connector-curvature="0"
         id="path45"
         d="m 41.577381,62.654761 v 64.255949 l 10.012045,-0.32297 0.192066,-64.225523 z"
         style="fill:#cccccc;stroke:none;stroke-width:0.26458332px;stroke-linecap:butt;stroke-linejoin:miter;stroke-opacity:1" />
      <path
         sodipodi:nodetypes="cccc"
         inkscape:connector-curvature="0"
         id="path27"
         d="m 58.491815,65.678573 c -0.319092,2.279727 -0.593835,4.544671 0.566963,6.331101 -0.30931,-2.66804 0.584053,-5.035411 1.228423,-7.465031 z"
         style="fill:#ffffff;stroke:none;stroke-width:0.26458332px;stroke-linecap:butt;stroke-linejoin:miter;stroke-opacity:1" />
      <path
         sodipodi:nodetypes="cccc"
         inkscape:connector-curvature="0"
         id="path29"
         d="m 61.988093,74.75 c -0.777227,-1.10243 -0.864405,-2.204861 -0.850445,-3.307291 0.638791,0.946942 1.467322,1.666196 2.551338,2.078868 z"
         style="fill:#ffffff;stroke:none;stroke-width:0.26458332px;stroke-linecap:butt;stroke-linejoin:miter;stroke-opacity:1" />
      <path
         sodipodi:nodetypes="zsssscsssszcczzzz"
         inkscape:connector-curvature="0"
         d="m 84.557703,57.740048 c 6.704667,5.184894 20.664447,42.499322 17.531377,57.807552 -2.00917,9.81688 -15.444121,13.26603 -15.76889,25.65788 -0.344253,13.13526 33.70274,18.69928 33.14142,35.8141 -0.43783,13.34941 -40.866701,21.84464 -39.288621,33.94324 1.603619,12.2944 20.316421,36.60411 20.316421,36.60411 0,0 -28.593907,-25.4024 -27.7921,-39.03314 0.716472,-12.18004 28.59784,-22.71791 33.40869,-30.736 4.81085,-8.01808 -34.210497,-22.18337 -30.201454,-39.02135 2.879753,-12.09496 16.089104,-17.23042 17.372518,-28.59783 1.870883,-16.57072 -8.251301,-35.725394 -15.333944,-38.264454 -7.082643,-2.539061 -17.844906,5.481677 -17.844906,5.481677 2.93022,-5.35046 8.40276,-9.769956 12.662203,-13.040178 -8.903581,-3.203404 -13.634449,3.718152 -15.187081,3.955169 -1.552632,0.237017 -1.275835,-2.317537 -1.254884,-3.388205 0.02095,-1.070668 3.096084,-11.376909 10.636721,-12.543965 7.540636,-1.167056 10.897863,0.1765 17.60253,5.361394 z"
         style="fill:#008000;stroke:none;stroke-width:0.26458332px;stroke-linecap:butt;stroke-linejoin:miter;stroke-opacity:1"
         id="path47" />
      <g
         style="stroke:none"
         transform="translate(6.9925595,0.37797619)"
         id="g78">
        <g
           style="stroke:none"
           id="g64">
          <path
             inkscape:connector-curvature="0"
             id="path55"
             transform="scale(0.26458333)"
             d="m 150,682.51953 c -7.65466,12.66988 -9.52122,30.6448 -8.75781,51.03125 -5.10823,-16.28048 -11.34703,-26.16453 -16.95703,-39.60156 0.61336,20.86745 5.24311,43.58733 7.02929,64.99609 -6.1526,-7.62785 -12.30442,-18.42356 -18.45703,-26.42578 0.52474,23.63932 7.82105,43.21608 17.39844,61.42383 -0.99781,5.00214 -2.45681,9.79028 -4.54102,14.29102 l 13.32227,1.24023 c 0.32145,0.53873 0.63972,1.07949 0.96289,1.61719 l 11.34375,-0.47266 35.79883,3.33008 c -0.19548,-13.87422 -1.15571,-25.83474 -2.61133,-36.5586 0.7378,-23.7152 -4.47816,-54.50183 -4.53125,-79.15624 -2.68089,7.50244 -6.07301,14.37146 -8.85156,21.7871 -1.36792,-4.79877 -2.72329,-9.6324 -4.00586,-14.64453 -4.3431,4.71634 -7.76862,11.42213 -10.49805,19.63477 -2.2761,-13.83797 -4.23092,-29.38761 -6.64453,-42.49219 z"
             style="fill:#ff0000;stroke:none;stroke-width:0.99999994px;stroke-linecap:butt;stroke-linejoin:miter;stroke-opacity:1" />
          <path
             inkscape:connector-curvature="0"
             style="fill:#ffff00;stroke:none;stroke-width:0.19641563px;stroke-linecap:butt;stroke-linejoin:miter;stroke-opacity:1"
             d="m 40.421746,190.37371 c -1.551304,2.41187 -1.929584,5.83361 -1.77487,9.71441 -1.035242,-3.09919 -2.299606,-4.98073 -3.436537,-7.53863 0.124305,3.97237 1.062576,8.29739 1.424567,12.3728 -1.246895,-1.45205 -2.493633,-3.50715 -3.740529,-5.03048 0.106345,4.50003 1.585026,8.22672 3.525993,11.69279 -0.202218,0.95221 -0.497902,1.8637 -0.92029,2.72047 l 2.699911,0.23609 c 0.06514,0.10256 0.129647,0.2055 0.19514,0.30787 l 2.298942,-0.09 7.255043,0.63392 c -0.03961,-2.64113 -0.234218,-4.91796 -0.529217,-6.95938 0.149524,-4.51448 -0.90755,-10.3751 -0.918309,-15.06837 -0.543313,1.42819 -1.230766,2.73579 -1.79387,4.14745 -0.277225,-0.9135 -0.551906,-1.83364 -0.811833,-2.78776 -0.88018,0.89781 -1.574401,2.17434 -2.127551,3.73771 -0.461278,-2.63423 -0.857444,-5.59429 -1.34659,-8.0889 z"
             id="path60" />
        </g>
        <g
           style="stroke:none"
           id="g70"
           transform="matrix(-0.91782087,0,0,0.90149335,80.650512,19.757757)">
          <path
             style="fill:#ff0000;stroke:none;stroke-width:0.99999994px;stroke-linecap:butt;stroke-linejoin:miter;stroke-opacity:1"
             d="m 150,682.51953 c -7.65466,12.66988 -9.52122,30.6448 -8.75781,51.03125 -5.10823,-16.28048 -11.34703,-26.16453 -16.95703,-39.60156 0.61336,20.86745 5.24311,43.58733 7.02929,64.99609 -6.1526,-7.62785 -12.30442,-18.42356 -18.45703,-26.42578 0.52474,23.63932 7.82105,43.21608 17.39844,61.42383 -0.99781,5.00214 -2.45681,9.79028 -4.54102,14.29102 l 13.32227,1.24023 c 0.32145,0.53873 0.63972,1.07949 0.96289,1.61719 l 11.34375,-0.47266 35.79883,3.33008 c -0.19548,-13.87422 -1.15571,-25.83474 -2.61133,-36.5586 0.7378,-23.7152 -4.47816,-54.50183 -4.53125,-79.15624 -2.68089,7.50244 -6.07301,14.37146 -8.85156,21.7871 -1.36792,-4.79877 -2.72329,-9.6324 -4.00586,-14.64453 -4.3431,4.71634 -7.76862,11.42213 -10.49805,19.63477 -2.2761,-13.83797 -4.23092,-29.38761 -6.64453,-42.49219 z"
             transform="scale(0.26458333)"
             id="path66"
             inkscape:connector-curvature="0" />
          <path
             id="path68"
             d="m 40.421746,190.37371 c -1.551304,2.41187 -1.929584,5.83361 -1.77487,9.71441 -1.035242,-3.09919 -2.299606,-4.98073 -3.436537,-7.53863 0.124305,3.97237 1.062576,8.29739 1.424567,12.3728 -1.246895,-1.45205 -2.493633,-3.50715 -3.740529,-5.03048 0.106345,4.50003 1.585026,8.22672 3.525993,11.69279 -0.202218,0.95221 -0.497902,1.8637 -0.92029,2.72047 l 2.699911,0.23609 c 0.06514,0.10256 0.129647,0.2055 0.19514,0.30787 l 2.298942,-0.09 7.255043,0.63392 c -0.03961,-2.64113 -0.234218,-4.91796 -0.529217,-6.95938 0.149524,-4.51448 -0.90755,-10.3751 -0.918309,-15.06837 -0.543313,1.42819 -1.230766,2.73579 -1.79387,4.14745 -0.277225,-0.9135 -0.551906,-1.83364 -0.811833,-2.78776 -0.88018,0.89781 -1.574401,2.17434 -2.127551,3.73771 -0.461278,-2.63423 -0.857444,-5.59429 -1.34659,-8.0889 z"
             style="fill:#ffff00;stroke:none;stroke-width:0.19641563px;stroke-linecap:butt;stroke-linejoin:miter;stroke-opacity:1"
             inkscape:connector-curvature="0" />
        </g>
      </g>
      <path
         sodipodi:nodetypes="ccc"
         inkscape:connector-curvature="0"
         id="path82"
         d="m 35.997482,209.65507 15.029302,-37.00924 10.197204,38.92958"
         style="fill:none;stroke:#000000;stroke-width:0.26458332px;stroke-linecap:butt;stroke-linejoin:miter;stroke-opacity:1" />
      <path
         sodipodi:nodetypes="cczc"
         inkscape:connector-curvature="0"
         id="path80"
         d="m 35.340773,209.12053 26.836311,2.07887 c 0,0 -6.980846,10.5209 -15.308037,10.39434 -8.32719,-0.12656 -11.528274,-12.47321 -11.528274,-12.47321 z"
         style="fill:#333333;stroke:none;stroke-width:0.26458332px;stroke-linecap:butt;stroke-linejoin:miter;stroke-opacity:1" />
      <path
         style="fill:#550000;stroke:none;stroke-width:0.26458332px;stroke-linecap:butt;stroke-linejoin:miter;stroke-opacity:1"
         d="m 89.328913,147.24957 -0.3958,36.51594 c 1.634189,3.38414 3.115479,2.21966 4.749668,-2.23055 l 0.284015,-32.71214 z"
         id="path23"
         inkscape:connector-curvature="0"
         sodipodi:nodetypes="ccccc" />
      <path
         style="fill:#550000;stroke:none;stroke-width:0.26458332px;stroke-linecap:butt;stroke-linejoin:miter;stroke-opacity:1"
         d="m 88.569857,217.279 -0.462627,42.68124 c 1.634189,3.38414 3.268377,3.53769 4.902566,-0.91252 l 0.407113,-46.89028 z"
         id="path25"
         inkscape:connector-curvature="0"
         sodipodi:nodetypes="ccccc" />
      <ellipse
         ry="0.8018086"
         rx="0.86862594"
         cy="58.261494"
         cx="65.748306"
         id="path31"
         style="fill:#ff0000;stroke:none;stroke-width:0.26458332" />
    </g>
  </g>
</svg>
