<?xml version="1.0" encoding="UTF-8" standalone="no"?>
<!-- Created with Inkscape (http://www.inkscape.org/) -->

<svg
   xmlns:dc="http://purl.org/dc/elements/1.1/"
   xmlns:cc="http://creativecommons.org/ns#"
   xmlns:rdf="http://www.w3.org/1999/02/22-rdf-syntax-ns#"
   xmlns:svg="http://www.w3.org/2000/svg"
   xmlns="http://www.w3.org/2000/svg"
   xmlns:sodipodi="http://sodipodi.sourceforge.net/DTD/sodipodi-0.dtd"
   xmlns:inkscape="http://www.inkscape.org/namespaces/inkscape"
   width="600mm"
   height="210.46167mm"
   viewBox="0 0 600 210.46167"
   version="1.1"
   id="svg8"
   inkscape:version="0.92.4 (5da689c313, 2019-01-14)"
   sodipodi:docname="sl1.svg"
   inkscape:export-filename="C:\xampp\htdocs\dannke\eddysworld\tema.d\one.d\img\sl0.svg.png"
   inkscape:export-xdpi="96"
   inkscape:export-ydpi="96">
  <defs
     id="defs2">
    <filter
       inkscape:collect="always"
       style="color-interpolation-filters:sRGB"
       id="filter4822"
       x="-0.025826565"
       width="1.0516531"
       y="-0.1580972"
       height="1.3161944">
      <feGaussianBlur
         inkscape:collect="always"
         stdDeviation="7.5353969"
         id="feGaussianBlur4824" />
    </filter>
  </defs>
  <sodipodi:namedview
     id="base"
     pagecolor="#ffffff"
     bordercolor="#666666"
     borderopacity="1.0"
     inkscape:pageopacity="0.0"
     inkscape:pageshadow="2"
     inkscape:zoom="0.98994952"
     inkscape:cx="567.91689"
     inkscape:cy="356.27232"
     inkscape:document-units="mm"
     inkscape:current-layer="layer1"
     showgrid="false"
     inkscape:window-width="1366"
     inkscape:window-height="746"
     inkscape:window-x="-8"
     inkscape:window-y="-8"
     inkscape:window-maximized="1"
     inkscape:snap-nodes="false"
     inkscape:object-paths="false"
     fit-margin-top="0"
     fit-margin-left="0"
     fit-margin-right="0"
     fit-margin-bottom="0"
     inkscape:snap-object-midpoints="true"
     inkscape:snap-others="false" />
  <metadata
     id="metadata5">
    <rdf:RDF>
      <cc:Work
         rdf:about="">
        <dc:format>image/svg+xml</dc:format>
        <dc:type
           rdf:resource="http://purl.org/dc/dcmitype/StillImage" />
        <dc:title />
      </cc:Work>
    </rdf:RDF>
  </metadata>
  <g
     inkscape:label="Camada 1"
     inkscape:groupmode="layer"
     id="layer1"
     transform="translate(-189.32867,-51.987106)">
    <rect
       style="opacity:0.84100001;fill:#000085;stroke:none;stroke-width:0.26458332;fill-opacity:1"
       id="rect4627"
       width="630.75604"
       height="250.16426"
       x="162.60172"
       y="12.284508" />
    <rect
       style="fill:#004000;stroke:none;stroke-width:0.26458332;opacity:0.841;fill-opacity:1;filter:url(#filter4822)"
       id="rect3740"
       width="700.24615"
       height="114.39135"
       x="127.32214"
       y="219.68565" />
    <g
       id="g2307">
      <path
         inkscape:connector-curvature="0"
         id="path38"
         d="m 261.9001,122.59759 -21.16667,102.05357 c 22.03844,0.66048 41.21102,9.91852 60.47619,18.8988 L 287.60248,118.81783 Z"
         style="fill:#00002b;fill-opacity:1;stroke:none;stroke-width:0.26458332px;stroke-linecap:butt;stroke-linejoin:miter;stroke-opacity:1"
         sodipodi:nodetypes="ccccc" />
      <path
         inkscape:transform-center-y="0.63581251"
         inkscape:transform-center-x="-1.1562705"
         d="m 282.33848,229.8419 -7.56949,-9.72298 -12.30082,0.72347 6.908,-10.20359 -4.48922,-11.47521 11.83887,3.41682 9.52633,-7.81554 0.40883,12.31529 10.37682,6.64495 -11.58621,4.19445 z"
         inkscape:randomized="0"
         inkscape:rounded="0"
         inkscape:flatsided="false"
         sodipodi:arg2="1.9960696"
         sodipodi:arg1="1.3677511"
         sodipodi:r2="9.2777567"
         sodipodi:r1="18.555513"
         sodipodi:cy="211.66757"
         sodipodi:cx="278.5967"
         sodipodi:sides="5"
         id="path2291"
         style="opacity:1;fill:#ffffff;fill-opacity:1;stroke:none;stroke-width:0.26458332"
         sodipodi:type="star" />
      <path
         sodipodi:nodetypes="cccccccccccccc"
         inkscape:connector-curvature="0"
         id="path32"
         d="m 231.662,239.7702 26.45833,-68.79166 -25.21959,-13.99315 -19.3816,-34.3878 26.61239,22.59181 22.52452,5.37843 -3.02381,-34.01786 29.73368,-3.5806 -7.05511,40.62226 19.65476,26.45834 -18.14286,-7.55953 3.77977,77.10714 -17.38691,-54.42857 z"
         style="fill:#000000;stroke:#000000;stroke-width:0.26458332px;stroke-linecap:butt;stroke-linejoin:miter;stroke-opacity:1;fill-opacity:1" />
      <path
         inkscape:connector-curvature="0"
         id="path34"
         d="m 205.20367,61.365448 -2.26786,7.559524 10.27021,54.015858 -10.58334,3.93959 2.88625,7.02498 9.87323,-1.30488 4.62743,17.56246 9.43041,-6.49044 -4.444,-13.64512 11.95767,-8.18578 -0.75595,-5.29167 -12.09524,3.02381 -10.58333,-54.42857 z"
         style="fill:#ff0000;stroke:none;stroke-width:0.26458332px;stroke-linecap:butt;stroke-linejoin:miter;stroke-opacity:1"
         sodipodi:nodetypes="cccccccccccccc" />
      <path
         sodipodi:nodetypes="czcccczzzczzcccccc"
         inkscape:connector-curvature="0"
         id="path36"
         d="m 258.12033,147.54402 c 0,0 7.46235,-24.74395 17.38691,-23.43453 9.92456,1.30942 11.33928,28.72619 11.33928,28.72619 l -8.31548,35.52976 13.60714,63.50001 c 80.30632,-14.10393 228.22544,-13.29108 350.00594,-7.55953 0,0 -48.82159,-36.02354 -82.39879,-43.08929 -33.5772,-7.06575 -85.94323,5.9203 -112.63691,7.55953 -26.69368,1.63923 -103.19052,-51.76765 -101.29762,-61.23215 1.8929,-9.46449 -52.91666,-2.26785 -52.91666,-2.26785 0,0 14.85244,-29.74374 4.91695,-39.59118 -9.93549,-9.847441 -33.92623,-8.259783 -43.24124,1.35074 -9.315,9.61052 -4.00904,35.97258 -4.00904,35.97258 l -5.66408,24.62643 c 1.29371,37.79488 -7.62021,34.7592 -11.72282,50.96881 l 10.58333,24.19047 21.16667,-86.17857 z"
         style="fill:#000044;stroke:none;stroke-width:0.26458332px;stroke-linecap:butt;stroke-linejoin:miter;stroke-opacity:1;fill-opacity:1;opacity:1" />
      <path
         sodipodi:nodetypes="cccc"
         inkscape:connector-curvature="0"
         id="path845"
         d="m 286.70895,175.24698 13.55342,18.52409 -11.6904,-32.93304 z"
         style="fill:#000000;stroke:#000000;stroke-width:0.26458332px;stroke-linecap:butt;stroke-linejoin:miter;stroke-opacity:1" />
      <path
         inkscape:transform-center-y="-0.69926029"
         inkscape:transform-center-x="-0.15656402"
         d="m 340.60321,191.35508 -5.06418,-3.04251 -5.37731,2.4469 1.32868,-5.75651 -3.98882,-4.35799 5.88535,-0.51521 2.91209,-5.14029 2.30866,5.4381 5.78859,1.18112 -4.45852,3.87613 z"
         inkscape:randomized="0"
         inkscape:rounded="0"
         inkscape:flatsided="false"
         sodipodi:arg2="1.6277774"
         sodipodi:arg1="0.99945885"
         sodipodi:r2="4.4482512"
         sodipodi:r1="8.8965025"
         sodipodi:cy="183.87154"
         sodipodi:cx="335.79236"
         sodipodi:sides="5"
         id="path2281"
         style="opacity:1;fill:#ffffff;fill-opacity:1;stroke:none;stroke-width:0.26458332"
         sodipodi:type="star" />
      <path
         inkscape:transform-center-y="-0.43214515"
         inkscape:transform-center-x="-0.16910248"
         d="m 376.41735,218.08202 -3.48085,-2.24055 -3.81906,1.59724 1.05524,-4.00285 -2.69922,-3.13857 4.13304,-0.23335 2.15085,-3.53698 1.4991,3.85863 4.02852,0.9526 -3.20653,2.61812 z"
         inkscape:randomized="0"
         inkscape:rounded="0"
         inkscape:flatsided="false"
         sodipodi:arg2="1.6586954"
         sodipodi:arg1="1.0303768"
         sodipodi:r2="3.1168714"
         sodipodi:r1="6.2337427"
         sodipodi:cy="212.73663"
         sodipodi:cx="373.21011"
         sodipodi:sides="5"
         id="path2283"
         style="opacity:1;fill:#ffffff;fill-opacity:1;stroke:none;stroke-width:0.26458332"
         sodipodi:type="star" />
      <path
         inkscape:transform-center-y="-0.037618956"
         inkscape:transform-center-x="0.72979875"
         d="m 487.06687,227.70373 -5.23363,-0.97965 -3.77405,3.75596 -0.68557,-5.28021 -4.73838,-2.42868 4.80993,-2.28369 0.84557,-5.25697 3.65827,3.86881 5.26097,-0.8203 -2.54899,4.67475 z"
         inkscape:randomized="0"
         inkscape:rounded="0"
         inkscape:flatsided="false"
         sodipodi:arg2="1.2718196"
         sodipodi:arg1="0.64350111"
         sodipodi:r2="4.0090427"
         sodipodi:r1="8.0180855"
         sodipodi:cy="222.89288"
         sodipodi:cx="480.6524"
         sodipodi:sides="5"
         id="path2285"
         style="opacity:1;fill:#ffffff;fill-opacity:1;stroke:none;stroke-width:0.26458332"
         sodipodi:type="star" />
      <path
         inkscape:transform-center-y="0.63055488"
         inkscape:transform-center-x="0.01586535"
         d="m 533.57182,221.82381 -4.44815,0.61191 -2.01765,4.01118 -1.95651,-4.04135 -4.43835,-0.67937 3.23895,-3.1096 -0.7254,-4.43106 3.9583,2.11951 3.99003,-2.05917 -0.7926,4.41953 z"
         inkscape:randomized="0"
         inkscape:rounded="0"
         inkscape:flatsided="false"
         sodipodi:arg2="0.95006909"
         sodipodi:arg1="0.32175055"
         sodipodi:r2="3.3807216"
         sodipodi:r1="6.7614431"
         sodipodi:cy="219.68565"
         sodipodi:cx="527.15735"
         sodipodi:sides="5"
         id="path2287"
         style="opacity:1;fill:#ffffff;fill-opacity:1;stroke:none;stroke-width:0.26458332"
         sodipodi:type="star" />
      <path
         inkscape:transform-center-y="-0.058976629"
         inkscape:transform-center-x="-0.21818564"
         d="m 311.20357,225.03103 -1.42211,-1.27737 -1.85849,0.44734 0.7754,-1.74724 -0.99975,-1.62929 1.90133,0.19752 1.24061,-1.4543 0.39969,1.86932 1.76649,0.73048 -1.65431,0.95778 z"
         inkscape:randomized="0"
         inkscape:rounded="0"
         inkscape:flatsided="false"
         sodipodi:arg2="1.8186085"
         sodipodi:arg1="1.1902899"
         sodipodi:r2="1.4392904"
         sodipodi:r1="2.8785808"
         sodipodi:cy="222.35834"
         sodipodi:cx="310.13449"
         sodipodi:sides="5"
         id="path2289"
         style="opacity:1;fill:#ffffff;fill-opacity:1;stroke:none;stroke-width:0.26458332"
         sodipodi:type="star" />
      <path
         sodipodi:type="star"
         style="opacity:1;fill:#ffffff;fill-opacity:1;stroke:none;stroke-width:0.26458332"
         id="path2293"
         sodipodi:sides="5"
         sodipodi:cx="417.5768"
         sodipodi:cy="218.61657"
         sodipodi:r1="8.0180855"
         sodipodi:r2="4.0090427"
         sodipodi:arg1="0.64350111"
         sodipodi:arg2="1.2718196"
         inkscape:flatsided="false"
         inkscape:rounded="0"
         inkscape:randomized="0"
         d="m 423.99128,223.42743 -5.23363,-0.97966 -3.77405,3.75596 -0.68557,-5.28021 -4.73838,-2.42867 4.80993,-2.2837 0.84557,-5.25696 3.65827,3.86881 5.26096,-0.82031 -2.54899,4.67475 z"
         inkscape:transform-center-x="0.72979875"
         inkscape:transform-center-y="-0.037618956" />
    </g>
  </g>
</svg>
