<?xml version="1.0" encoding="UTF-8" standalone="no"?>
<!-- Created with Inkscape (http://www.inkscape.org/) -->

<svg
   xmlns:dc="http://purl.org/dc/elements/1.1/"
   xmlns:cc="http://creativecommons.org/ns#"
   xmlns:rdf="http://www.w3.org/1999/02/22-rdf-syntax-ns#"
   xmlns:svg="http://www.w3.org/2000/svg"
   xmlns="http://www.w3.org/2000/svg"
   xmlns:sodipodi="http://sodipodi.sourceforge.net/DTD/sodipodi-0.dtd"
   xmlns:inkscape="http://www.inkscape.org/namespaces/inkscape"
   width="600mm"
   height="210.46167mm"
   viewBox="0 0 600 210.46167"
   version="1.1"
   id="svg8"
   inkscape:version="0.92.4 (5da689c313, 2019-01-14)"
   sodipodi:docname="sl2.svg"
   inkscape:export-filename="C:\xampp\htdocs\dannke\eddysworld\tema.d\one.d\img\sl0.svg.png"
   inkscape:export-xdpi="96"
   inkscape:export-ydpi="96">
  <defs
     id="defs2">
    <filter
       inkscape:collect="always"
       style="color-interpolation-filters:sRGB"
       id="filter4822"
       x="-0.025826565"
       width="1.0516531"
       y="-0.1580972"
       height="1.3161944">
      <feGaussianBlur
         inkscape:collect="always"
         stdDeviation="7.5353969"
         id="feGaussianBlur4824" />
    </filter>
  </defs>
  <sodipodi:namedview
     id="base"
     pagecolor="#ffffff"
     bordercolor="#666666"
     borderopacity="1.0"
     inkscape:pageopacity="0.0"
     inkscape:pageshadow="2"
     inkscape:zoom="0.35000001"
     inkscape:cx="1032.9163"
     inkscape:cy="297.06476"
     inkscape:document-units="mm"
     inkscape:current-layer="layer1"
     showgrid="false"
     inkscape:window-width="1366"
     inkscape:window-height="746"
     inkscape:window-x="-8"
     inkscape:window-y="-8"
     inkscape:window-maximized="1"
     inkscape:snap-nodes="false"
     inkscape:object-paths="false"
     fit-margin-top="0"
     fit-margin-left="0"
     fit-margin-right="0"
     fit-margin-bottom="0"
     inkscape:snap-object-midpoints="true"
     inkscape:snap-others="false" />
  <metadata
     id="metadata5">
    <rdf:RDF>
      <cc:Work
         rdf:about="">
        <dc:format>image/svg+xml</dc:format>
        <dc:type
           rdf:resource="http://purl.org/dc/dcmitype/StillImage" />
        <dc:title></dc:title>
      </cc:Work>
    </rdf:RDF>
  </metadata>
  <g
     inkscape:label="Camada 1"
     inkscape:groupmode="layer"
     id="layer1"
     transform="translate(-189.32867,-51.987106)">
    <rect
       style="opacity:0.84100001;fill:#000085;stroke:none;stroke-width:0.26458332;fill-opacity:1"
       id="rect4627"
       width="630.75604"
       height="250.16426"
       x="162.60172"
       y="12.284508" />
    <path
       style="fill:#000000;fill-opacity:1;stroke:#000000;stroke-width:0.26458332px;stroke-linecap:butt;stroke-linejoin:miter;stroke-opacity:1"
       d="m 595.27507,236.74639 26.45833,-68.79166 -25.21959,-13.99315 -19.3816,-34.3878 26.61239,22.59181 22.52452,5.37843 c 0,0 -9.75099,-25.71844 -3.02381,-34.01786 6.72718,-8.29942 21.56658,-12.18482 29.73368,-3.5806 8.1671,8.60422 -7.05511,40.62226 -7.05511,40.62226 l 19.65476,26.45834 -18.14286,-7.55953 3.77977,77.10714 -17.38691,-54.42857 z"
       id="path2447"
       inkscape:connector-curvature="0"
       sodipodi:nodetypes="cccccczzcccccc" />
    <rect
       style="fill:#004000;stroke:none;stroke-width:0.26458332;opacity:0.841;fill-opacity:1;filter:url(#filter4822)"
       id="rect3740"
       width="700.24615"
       height="114.39135"
       x="127.32214"
       y="219.68565" />
    <path
       inkscape:transform-center-y="0.63581251"
       inkscape:transform-center-x="-1.1562705"
       d="m 282.33848,229.8419 -7.56949,-9.72298 -12.30082,0.72347 6.908,-10.20359 -4.48922,-11.47521 11.83887,3.41682 9.52633,-7.81554 0.40883,12.31529 10.37682,6.64495 -11.58621,4.19445 z"
       inkscape:randomized="0"
       inkscape:rounded="0"
       inkscape:flatsided="false"
       sodipodi:arg2="1.9960696"
       sodipodi:arg1="1.3677511"
       sodipodi:r2="9.2777567"
       sodipodi:r1="18.555513"
       sodipodi:cy="211.66757"
       sodipodi:cx="278.59671"
       sodipodi:sides="5"
       id="path2394"
       style="opacity:1;fill:#ffffff;fill-opacity:1;stroke:none;stroke-width:0.26458332"
       sodipodi:type="star"
       transform="rotate(9.710126,866.07161,281.70164)" />
    <path
       sodipodi:nodetypes="cczzzczzccccc"
       inkscape:connector-curvature="0"
       id="path2396"
       d="m 266.84997,188.00989 c 79.69155,3.83234 410.74293,98.08835 551.72508,74.46802 0,0 -208.96187,-99.14654 -240.8663,-111.77431 -31.90443,-12.62778 -58.33633,-16.24692 -84.92407,-19.13342 -26.58774,-2.88651 -69.67855,-25.32919 -81.82425,-46.212843 -12.14569,-20.883652 -49.01897,-45.20098 -49.01897,-45.20098 0,0 -18.16944,-16.412443 -26.30169,-27.79456 C 327.50753,0.97967796 282.38655,-12.032923 271.58405,-4.1311856 260.78155,3.7705497 208.94809,-15.933765 208.94809,-15.933765 L 188.56464,-2.1067131 C 183.4652,35.364907 174.30311,121.21623 167.52531,136.50166 l 53.16686,34.40665 z"
       style="opacity:1;fill:#00005b;fill-opacity:1;stroke:none;stroke-width:0.26458332px;stroke-linecap:butt;stroke-linejoin:miter;stroke-opacity:1" />
    <path
       inkscape:transform-center-y="-0.69926029"
       inkscape:transform-center-x="-0.15656402"
       d="m 339.84726,179.25985 -5.06418,-3.04251 -5.37731,2.4469 1.32868,-5.75651 -3.98882,-4.35799 5.88535,-0.51521 2.91209,-5.14029 2.30866,5.4381 5.78859,1.18112 -4.45852,3.87613 z"
       inkscape:randomized="0"
       inkscape:rounded="0"
       inkscape:flatsided="false"
       sodipodi:arg2="1.6277774"
       sodipodi:arg1="0.99945885"
       sodipodi:r2="4.4482512"
       sodipodi:r1="8.8965025"
       sodipodi:cy="171.77631"
       sodipodi:cx="335.03641"
       sodipodi:sides="5"
       id="path2398"
       style="opacity:1;fill:#ffffff;fill-opacity:1;stroke:none;stroke-width:0.26458332"
       sodipodi:type="star"
       transform="rotate(9.710126,866.07161,281.70164)" />
    <path
       inkscape:transform-center-y="-2.1154643"
       inkscape:transform-center-x="-0.78224663"
       d="m 376.41735,218.08202 -3.48085,-2.24055 -3.81906,1.59724 1.05524,-4.00285 -2.69922,-3.13857 4.13304,-0.23335 2.15085,-3.53698 1.4991,3.85863 4.02852,0.9526 -3.20653,2.61812 z"
       inkscape:randomized="0"
       inkscape:rounded="0"
       inkscape:flatsided="false"
       sodipodi:arg2="1.6586954"
       sodipodi:arg1="1.0303768"
       sodipodi:r2="3.1168714"
       sodipodi:r1="6.2337427"
       sodipodi:cy="212.73663"
       sodipodi:cx="373.21011"
       sodipodi:sides="5"
       id="path2400"
       style="opacity:1;fill:#ffffff;fill-opacity:1;stroke:none;stroke-width:0.26458332"
       sodipodi:type="star"
       transform="matrix(4.5596422,0.82565698,-0.78022332,4.8251575,-1165.6302,-1183.5758)" />
    <path
       inkscape:transform-center-y="-0.13625748"
       inkscape:transform-center-x="3.2832862"
       d="m 487.06687,227.70373 -5.23363,-0.97965 -3.77405,3.75596 -0.68557,-5.28021 -4.73838,-2.42868 4.80993,-2.28369 0.84557,-5.25697 3.65827,3.86881 5.26097,-0.8203 -2.54899,4.67475 z"
       inkscape:randomized="0"
       inkscape:rounded="0"
       inkscape:flatsided="false"
       sodipodi:arg2="1.2718196"
       sodipodi:arg1="0.64350111"
       sodipodi:r2="4.0090427"
       sodipodi:r1="8.0180855"
       sodipodi:cy="222.89288"
       sodipodi:cx="480.6524"
       sodipodi:sides="5"
       id="path2402"
       style="opacity:1;fill:#ffffff;fill-opacity:1;stroke:none;stroke-width:0.26458332"
       sodipodi:type="star"
       transform="matrix(4.4344945,0.6109044,-0.75880866,3.5701387,-1484.7596,-901.49888)" />
    <path
       inkscape:transform-center-y="0.63055488"
       inkscape:transform-center-x="0.01586535"
       d="m 533.57182,221.82381 -4.44815,0.61191 -2.01765,4.01118 -1.95651,-4.04135 -4.43835,-0.67937 3.23895,-3.1096 -0.7254,-4.43106 3.9583,2.11951 3.99003,-2.05917 -0.7926,4.41953 z"
       inkscape:randomized="0"
       inkscape:rounded="0"
       inkscape:flatsided="false"
       sodipodi:arg2="0.95006909"
       sodipodi:arg1="0.32175055"
       sodipodi:r2="3.3807216"
       sodipodi:r1="6.7614431"
       sodipodi:cy="219.68565"
       sodipodi:cx="527.15735"
       sodipodi:sides="5"
       id="path2404"
       style="opacity:1;fill:#ffffff;fill-opacity:1;stroke:none;stroke-width:0.26458332"
       sodipodi:type="star"
       transform="rotate(9.710126,866.07161,281.70164)" />
    <path
       transform="matrix(14.882704,2.5466543,-2.1757035,12.714859,-3825.1834,-3454.5283)"
       inkscape:transform-center-y="-0.7608091"
       inkscape:transform-center-x="-3.2944888"
       d="m 311.20357,225.03103 -1.42211,-1.27737 -1.85849,0.44734 0.7754,-1.74724 -0.99975,-1.62929 1.90133,0.19752 1.24061,-1.4543 0.39969,1.86932 1.76649,0.73048 -1.65431,0.95778 z"
       inkscape:randomized="0"
       inkscape:rounded="0"
       inkscape:flatsided="false"
       sodipodi:arg2="1.8186085"
       sodipodi:arg1="1.1902899"
       sodipodi:r2="1.4392904"
       sodipodi:r1="2.8785808"
       sodipodi:cy="222.35834"
       sodipodi:cx="310.13449"
       sodipodi:sides="5"
       id="path2406"
       style="opacity:1;fill:#ffffff;fill-opacity:1;stroke:none;stroke-width:0.26458332"
       sodipodi:type="star" />
    <path
       transform="matrix(1.650289,0.28238925,-0.28571774,1.6697408,-179.99284,-338.01108)"
       sodipodi:type="star"
       style="opacity:1;fill:#ffffff;fill-opacity:1;stroke:none;stroke-width:0.26458332"
       id="path2408"
       sodipodi:sides="5"
       sodipodi:cx="407.74942"
       sodipodi:cy="227.688"
       sodipodi:r1="8.0180855"
       sodipodi:r2="4.0090427"
       sodipodi:arg1="0.64350111"
       sodipodi:arg2="1.2718196"
       inkscape:flatsided="false"
       inkscape:rounded="0"
       inkscape:randomized="0"
       d="m 414.16389,232.49885 -5.23364,-0.97965 -3.77404,3.75596 -0.68558,-5.28021 -4.73837,-2.42868 4.80993,-2.28369 0.84556,-5.25697 3.65828,3.86882 5.26096,-0.82031 -2.54899,4.67475 z"
       inkscape:transform-center-x="1.2218852"
       inkscape:transform-center-y="-0.063716788" />
    <path
       transform="matrix(5.08734,0.87052035,-0.80751139,4.7191143,-715.64674,-764.01808)"
       sodipodi:type="star"
       style="opacity:1;fill:#ffffff;fill-opacity:1;stroke:none;stroke-width:0.26458332"
       id="path2410"
       sodipodi:sides="5"
       sodipodi:cx="210.30428"
       sodipodi:cy="137.00249"
       sodipodi:r1="8.8965025"
       sodipodi:r2="4.4482512"
       sodipodi:arg1="0.99945885"
       sodipodi:arg2="1.6277774"
       inkscape:flatsided="false"
       inkscape:rounded="0"
       inkscape:randomized="0"
       d="m 215.11513,144.48603 -5.06418,-3.04251 -5.37732,2.4469 1.32869,-5.75651 -3.98882,-4.35799 5.88535,-0.51521 2.91208,-5.14029 2.30867,5.4381 5.78859,1.18112 -4.45853,3.87613 z"
       inkscape:transform-center-x="-0.80805965"
       inkscape:transform-center-y="-3.3478352" />
    <path
       sodipodi:type="star"
       style="opacity:1;fill:#ffffff;fill-opacity:1;stroke:none;stroke-width:0.26458332"
       id="path2412"
       sodipodi:sides="5"
       sodipodi:cx="698.75854"
       sodipodi:cy="268.82257"
       sodipodi:r1="6.7614431"
       sodipodi:r2="3.3807216"
       sodipodi:arg1="0.32175055"
       sodipodi:arg2="0.95006909"
       inkscape:flatsided="false"
       inkscape:rounded="0"
       inkscape:randomized="0"
       d="m 705.17301,270.96073 -4.44815,0.61191 -2.01764,4.01118 -1.95652,-4.04135 -4.43835,-0.67937 3.23896,-3.10961 -0.7254,-4.43105 3.9583,2.11951 3.99002,-2.05917 -0.79259,4.41953 z"
       inkscape:transform-center-x="0.01586535"
       inkscape:transform-center-y="0.63055488"
       transform="rotate(9.710126,866.07161,281.70164)" />
    <path
       inkscape:transform-center-y="0.63055488"
       inkscape:transform-center-x="0.01586535"
       d="m 647.72062,248.28215 -4.44815,0.61191 -2.01765,4.01119 -1.95651,-4.04136 -4.43835,-0.67937 3.23896,-3.1096 -0.7254,-4.43106 3.9583,2.11951 3.99002,-2.05917 -0.79259,4.41953 z"
       inkscape:randomized="0"
       inkscape:rounded="0"
       inkscape:flatsided="false"
       sodipodi:arg2="0.95006909"
       sodipodi:arg1="0.32175055"
       sodipodi:r2="3.3807216"
       sodipodi:r1="6.7614431"
       sodipodi:cy="246.144"
       sodipodi:cx="641.30615"
       sodipodi:sides="5"
       id="path2414"
       style="opacity:1;fill:#ffffff;fill-opacity:1;stroke:none;stroke-width:0.26458332"
       sodipodi:type="star"
       transform="rotate(9.710126,866.07161,281.70164)" />
    <path
       sodipodi:type="star"
       style="opacity:1;fill:#ffffff;fill-opacity:1;stroke:none;stroke-width:0.26458332"
       id="path2416"
       sodipodi:sides="5"
       sodipodi:cx="583.85376"
       sodipodi:cy="268.82257"
       sodipodi:r1="6.7614431"
       sodipodi:r2="3.3807216"
       sodipodi:arg1="0.32175055"
       sodipodi:arg2="0.95006909"
       inkscape:flatsided="false"
       inkscape:rounded="0"
       inkscape:randomized="0"
       d="m 590.26823,270.96073 -4.44815,0.61191 -2.01765,4.01118 -1.95651,-4.04135 -4.43835,-0.67937 3.23896,-3.10961 -0.72541,-4.43105 3.9583,2.11951 3.99003,-2.05917 -0.7926,4.41953 z"
       inkscape:transform-center-x="0.01586535"
       inkscape:transform-center-y="0.63055488"
       transform="rotate(9.710126,866.07161,281.70164)" />
    <path
       transform="matrix(2.7817553,0.47600015,-0.48062261,2.8087691,-904.60952,-718.9283)"
       inkscape:transform-center-y="1.7968373"
       inkscape:transform-center-x="0.044773093"
       d="m 588.00034,227.11548 -4.44814,0.61191 -2.01765,4.01118 -1.95652,-4.04135 -4.43834,-0.67937 3.23895,-3.1096 -0.7254,-4.43106 3.9583,2.11951 3.99002,-2.05917 -0.79259,4.41953 z"
       inkscape:randomized="0"
       inkscape:rounded="0"
       inkscape:flatsided="false"
       sodipodi:arg2="0.95006909"
       sodipodi:arg1="0.32175055"
       sodipodi:r2="3.3807216"
       sodipodi:r1="6.7614431"
       sodipodi:cy="224.97733"
       sodipodi:cx="581.58588"
       sodipodi:sides="5"
       id="path2418"
       style="opacity:1;fill:#ffffff;fill-opacity:1;stroke:none;stroke-width:0.26458332"
       sodipodi:type="star" />
    <path
       transform="matrix(3.9508804,0.67605503,-0.75393436,4.4060089,-1271.2779,-1232.8219)"
       sodipodi:type="star"
       style="opacity:1;fill:#ffffff;fill-opacity:1;stroke:none;stroke-width:0.26458332"
       id="path2420"
       sodipodi:sides="5"
       sodipodi:cx="503.33099"
       sodipodi:cy="253.88693"
       sodipodi:r1="8.0180855"
       sodipodi:r2="4.0090427"
       sodipodi:arg1="0.64350111"
       sodipodi:arg2="1.2718196"
       inkscape:flatsided="false"
       inkscape:rounded="0"
       inkscape:randomized="0"
       d="m 509.74546,258.69778 -5.23363,-0.97965 -3.77405,3.75596 -0.68557,-5.28021 -4.73838,-2.42868 4.80993,-2.28369 0.84557,-5.25697 3.65827,3.86881 5.26096,-0.8203 -2.54899,4.67475 z"
       inkscape:transform-center-x="2.9252263"
       inkscape:transform-center-y="-0.16815519" />
    <path
       sodipodi:type="star"
       style="opacity:1;fill:#ffffff;fill-opacity:1;stroke:none;stroke-width:0.26458332"
       id="path2422"
       sodipodi:sides="5"
       sodipodi:cx="276.07211"
       sodipodi:cy="189.16319"
       sodipodi:r1="8.8965025"
       sodipodi:r2="4.4482512"
       sodipodi:arg1="0.99945885"
       sodipodi:arg2="1.6277774"
       inkscape:flatsided="false"
       inkscape:rounded="0"
       inkscape:randomized="0"
       d="m 280.88296,196.64674 -5.06418,-3.04252 -5.37731,2.44691 1.32869,-5.75651 -3.98883,-4.358 5.88536,-0.5152 2.91208,-5.14029 2.30866,5.4381 5.78859,1.18111 -4.45852,3.87614 z"
       inkscape:transform-center-x="-0.15656402"
       inkscape:transform-center-y="-0.69926029"
       transform="rotate(9.710126,866.07161,281.70164)" />
    <path
       sodipodi:nodetypes="cccccczzcccccc"
       inkscape:connector-curvature="0"
       id="path2449"
       d="m 254.61817,177.02616 -26.45833,-68.79166 25.21959,-13.993156 19.3816,-34.3878 -26.61239,22.59181 -22.52452,5.37843 c 0,0 9.75099,-25.71844 3.02381,-34.01786 -6.72718,-8.29942 -21.56658,-12.18482 -29.73368,-3.5806 -8.1671,8.60422 7.05511,40.62226 7.05511,40.62226 l -19.65476,26.458346 18.14286,-7.55953 -3.77977,77.10714 17.38691,-54.42857 z"
       style="fill:#000000;fill-opacity:1;stroke:#000000;stroke-width:0.26458332px;stroke-linecap:butt;stroke-linejoin:miter;stroke-opacity:1" />
    <path
       inkscape:transform-center-y="-0.69926029"
       inkscape:transform-center-x="-0.15656402"
       d="m 339.84726,179.25985 -5.06418,-3.04251 -5.37731,2.4469 1.32868,-5.75651 -3.98882,-4.35799 5.88535,-0.51521 2.91209,-5.14029 2.30866,5.4381 5.78859,1.18112 -4.45852,3.87613 z"
       inkscape:randomized="0"
       inkscape:rounded="0"
       inkscape:flatsided="false"
       sodipodi:arg2="1.6277774"
       sodipodi:arg1="0.99945885"
       sodipodi:r2="4.4482512"
       sodipodi:r1="8.8965025"
       sodipodi:cy="171.77631"
       sodipodi:cx="335.03641"
       sodipodi:sides="5"
       id="path2443"
       style="opacity:1;fill:#ffffff;fill-opacity:1;stroke:none;stroke-width:0.26458332"
       sodipodi:type="star"
       transform="rotate(9.710126,672.95622,118.82438)" />
    <path
       sodipodi:nodetypes="cccccczzcccccc"
       inkscape:connector-curvature="0"
       id="path2445"
       d="m 407.72862,190.52222 73.66375,-2.44683 3.05674,-28.67913 24.11391,-31.25198 -10.4325,33.31324 3.82623,22.83947 c 0,0 19.88386,-19.004 30.14893,-16.04368 10.26508,2.96032 19.6271,15.11173 14.88661,25.98656 -4.74048,10.87483 -40.15944,9.33604 -40.15944,9.33604 l -16.70509,28.41291 -0.1098,-19.65446 -69.5358,33.5346 43.34719,-37.22626 z"
       style="fill:#000000;fill-opacity:1;stroke:#000000;stroke-width:0.26458332px;stroke-linecap:butt;stroke-linejoin:miter;stroke-opacity:1" />
    <path
       style="fill:#000000;fill-opacity:1;stroke:#000000;stroke-width:0.26458332px;stroke-linecap:butt;stroke-linejoin:miter;stroke-opacity:1"
       d="m 321.62032,191.38925 26.45833,-68.79166 -25.21959,-13.99315 -19.3816,-34.387801 26.61239,22.59181 22.52452,5.378431 c 0,0 -9.75099,-25.718441 -3.02381,-34.017861 6.72718,-8.29942 21.56658,-12.18482 29.73368,-3.5806 8.1671,8.60422 -7.05511,40.622261 -7.05511,40.622261 l 35.52976,-7.559516 -34.01786,26.458326 3.77977,77.10714 -17.38691,-54.42857 z"
       id="path32"
       inkscape:connector-curvature="0"
       sodipodi:nodetypes="cccccczzcccccc" />
    <path
       sodipodi:type="star"
       style="opacity:1;fill:#ffffff;fill-opacity:1;stroke:none;stroke-width:0.26458332"
       id="path2291"
       sodipodi:sides="5"
       sodipodi:cx="278.59671"
       sodipodi:cy="211.66757"
       sodipodi:r1="18.555513"
       sodipodi:r2="9.2777567"
       sodipodi:arg1="1.3677511"
       sodipodi:arg2="1.9960696"
       inkscape:flatsided="false"
       inkscape:rounded="0"
       inkscape:randomized="0"
       d="m 282.33848,229.8419 -7.56949,-9.72298 -12.30082,0.72347 6.908,-10.20359 -4.48922,-11.47521 11.83887,3.41682 9.52633,-7.81554 0.40883,12.31529 10.37682,6.64495 -11.58621,4.19445 z"
       inkscape:transform-center-x="-1.1562705"
       inkscape:transform-center-y="0.63581251" />
    <path
       style="opacity:1;fill:#000076;fill-opacity:1;stroke:none;stroke-width:0.26458332px;stroke-linecap:butt;stroke-linejoin:miter;stroke-opacity:1"
       d="m 259.63223,290.41902 c 79.19624,-9.66363 421.40242,27.40573 556.38093,-19.65477 0,0 -222.69063,-62.48187 -256.26783,-69.54762 -33.5772,-7.06575 -60.24085,-6.17494 -86.93453,-4.53571 -26.69368,1.63923 -72.95243,-13.21408 -88.44643,-31.75001 -15.494,-18.53593 -55.94047,-36.2857 -55.94047,-36.2857 0,0 -20.67732,-13.11279 -30.61281,-22.96023 -9.93549,-9.847441 -56.6048,-15.063354 -65.91981,-5.45283 -9.315,9.61052 -63.72928,-1.069087 -63.72928,-1.069087 l -17.75931,17.066907 c 1.29371,37.79488 6.74288,123.96158 2.64027,140.17119 l 58.20833,24.94642 z"
       id="path36"
       inkscape:connector-curvature="0"
       sodipodi:nodetypes="cczzzczzccccc" />
    <path
       sodipodi:type="star"
       style="opacity:1;fill:#ffffff;fill-opacity:1;stroke:none;stroke-width:0.26458332"
       id="path2281"
       sodipodi:sides="5"
       sodipodi:cx="335.03641"
       sodipodi:cy="171.77631"
       sodipodi:r1="8.8965025"
       sodipodi:r2="4.4482512"
       sodipodi:arg1="0.99945885"
       sodipodi:arg2="1.6277774"
       inkscape:flatsided="false"
       inkscape:rounded="0"
       inkscape:randomized="0"
       d="m 339.84726,179.25985 -5.06418,-3.04251 -5.37731,2.4469 1.32868,-5.75651 -3.98882,-4.35799 5.88535,-0.51521 2.91209,-5.14029 2.30866,5.4381 5.78859,1.18112 -4.45852,3.87613 z"
       inkscape:transform-center-x="-0.15656402"
       inkscape:transform-center-y="-0.69926029" />
    <path
       sodipodi:type="star"
       style="opacity:1;fill:#ffffff;fill-opacity:1;stroke:none;stroke-width:0.26458332"
       id="path2283"
       sodipodi:sides="5"
       sodipodi:cx="373.21011"
       sodipodi:cy="212.73663"
       sodipodi:r1="6.2337427"
       sodipodi:r2="3.1168714"
       sodipodi:arg1="1.0303768"
       sodipodi:arg2="1.6586954"
       inkscape:flatsided="false"
       inkscape:rounded="0"
       inkscape:randomized="0"
       d="m 376.41735,218.08202 -3.48085,-2.24055 -3.81906,1.59724 1.05524,-4.00285 -2.69922,-3.13857 4.13304,-0.23335 2.15085,-3.53698 1.4991,3.85863 4.02852,0.9526 -3.20653,2.61812 z"
       inkscape:transform-center-x="-0.16910248"
       inkscape:transform-center-y="-0.43214515" />
    <path
       sodipodi:type="star"
       style="opacity:1;fill:#ffffff;fill-opacity:1;stroke:none;stroke-width:0.26458332"
       id="path2285"
       sodipodi:sides="5"
       sodipodi:cx="480.6524"
       sodipodi:cy="222.89288"
       sodipodi:r1="8.0180855"
       sodipodi:r2="4.0090427"
       sodipodi:arg1="0.64350111"
       sodipodi:arg2="1.2718196"
       inkscape:flatsided="false"
       inkscape:rounded="0"
       inkscape:randomized="0"
       d="m 487.06687,227.70373 -5.23363,-0.97965 -3.77405,3.75596 -0.68557,-5.28021 -4.73838,-2.42868 4.80993,-2.28369 0.84557,-5.25697 3.65827,3.86881 5.26097,-0.8203 -2.54899,4.67475 z"
       inkscape:transform-center-x="0.72979875"
       inkscape:transform-center-y="-0.037618956" />
    <path
       sodipodi:type="star"
       style="opacity:1;fill:#ffffff;fill-opacity:1;stroke:none;stroke-width:0.26458332"
       id="path2287"
       sodipodi:sides="5"
       sodipodi:cx="527.15735"
       sodipodi:cy="219.68565"
       sodipodi:r1="6.7614431"
       sodipodi:r2="3.3807216"
       sodipodi:arg1="0.32175055"
       sodipodi:arg2="0.95006909"
       inkscape:flatsided="false"
       inkscape:rounded="0"
       inkscape:randomized="0"
       d="m 533.57182,221.82381 -4.44815,0.61191 -2.01765,4.01118 -1.95651,-4.04135 -4.43835,-0.67937 3.23895,-3.1096 -0.7254,-4.43106 3.9583,2.11951 3.99003,-2.05917 -0.7926,4.41953 z"
       inkscape:transform-center-x="0.01586535"
       inkscape:transform-center-y="0.63055488" />
    <path
       sodipodi:type="star"
       style="opacity:1;fill:#ffffff;fill-opacity:1;stroke:none;stroke-width:0.26458332"
       id="path2289"
       sodipodi:sides="5"
       sodipodi:cx="310.13449"
       sodipodi:cy="222.35834"
       sodipodi:r1="2.8785808"
       sodipodi:r2="1.4392904"
       sodipodi:arg1="1.1902899"
       sodipodi:arg2="1.8186085"
       inkscape:flatsided="false"
       inkscape:rounded="0"
       inkscape:randomized="0"
       d="m 311.20357,225.03103 -1.42211,-1.27737 -1.85849,0.44734 0.7754,-1.74724 -0.99975,-1.62929 1.90133,0.19752 1.24061,-1.4543 0.39969,1.86932 1.76649,0.73048 -1.65431,0.95778 z"
       inkscape:transform-center-x="-3.2944888"
       inkscape:transform-center-y="-0.7608091"
       transform="matrix(15.099017,0,0,12.899664,-4388.1409,-2609.758)" />
    <path
       inkscape:transform-center-y="-0.063716788"
       inkscape:transform-center-x="1.2218852"
       d="m 414.16389,232.49885 -5.23364,-0.97965 -3.77404,3.75596 -0.68558,-5.28021 -4.73837,-2.42868 4.80993,-2.28369 0.84556,-5.25697 3.65828,3.86882 5.26096,-0.82031 -2.54899,4.67475 z"
       inkscape:randomized="0"
       inkscape:rounded="0"
       inkscape:flatsided="false"
       sodipodi:arg2="1.2718196"
       sodipodi:arg1="0.64350111"
       sodipodi:r2="4.0090427"
       sodipodi:r1="8.0180855"
       sodipodi:cy="227.688"
       sodipodi:cx="407.74942"
       sodipodi:sides="5"
       id="path2293"
       style="opacity:1;fill:#ffffff;fill-opacity:1;stroke:none;stroke-width:0.26458332"
       sodipodi:type="star"
       transform="matrix(1.6742752,0,0,1.6940097,-269.52955,-152.6999)" />
    <path
       inkscape:transform-center-y="-3.3478352"
       inkscape:transform-center-x="-0.80805965"
       d="m 215.11513,144.48603 -5.06418,-3.04251 -5.37732,2.4469 1.32869,-5.75651 -3.98882,-4.35799 5.88535,-0.51521 2.91208,-5.14029 2.30867,5.4381 5.78859,1.18112 -4.45853,3.87613 z"
       inkscape:randomized="0"
       inkscape:rounded="0"
       inkscape:flatsided="false"
       sodipodi:arg2="1.6277774"
       sodipodi:arg1="0.99945885"
       sodipodi:r2="4.4482512"
       sodipodi:r1="8.8965025"
       sodipodi:cy="137.00249"
       sodipodi:cx="210.30428"
       sodipodi:sides="5"
       id="path2363"
       style="opacity:1;fill:#ffffff;fill-opacity:1;stroke:none;stroke-width:0.26458332"
       sodipodi:type="star"
       transform="matrix(5.1612822,0,0,4.7877045,-869.36137,-482.25848)" />
    <path
       inkscape:transform-center-y="0.63055488"
       inkscape:transform-center-x="0.01586535"
       d="m 705.17301,270.96073 -4.44815,0.61191 -2.01764,4.01118 -1.95652,-4.04135 -4.43835,-0.67937 3.23896,-3.10961 -0.7254,-4.43105 3.9583,2.11951 3.99002,-2.05917 -0.79259,4.41953 z"
       inkscape:randomized="0"
       inkscape:rounded="0"
       inkscape:flatsided="false"
       sodipodi:arg2="0.95006909"
       sodipodi:arg1="0.32175055"
       sodipodi:r2="3.3807216"
       sodipodi:r1="6.7614431"
       sodipodi:cy="268.82257"
       sodipodi:cx="698.75854"
       sodipodi:sides="5"
       id="path2365"
       style="opacity:1;fill:#ffffff;fill-opacity:1;stroke:none;stroke-width:0.26458332"
       sodipodi:type="star" />
    <path
       sodipodi:type="star"
       style="opacity:1;fill:#ffffff;fill-opacity:1;stroke:none;stroke-width:0.26458332"
       id="path2367"
       sodipodi:sides="5"
       sodipodi:cx="641.30615"
       sodipodi:cy="246.144"
       sodipodi:r1="6.7614431"
       sodipodi:r2="3.3807216"
       sodipodi:arg1="0.32175055"
       sodipodi:arg2="0.95006909"
       inkscape:flatsided="false"
       inkscape:rounded="0"
       inkscape:randomized="0"
       d="m 647.72062,248.28215 -4.44815,0.61191 -2.01765,4.01119 -1.95651,-4.04136 -4.43835,-0.67937 3.23896,-3.1096 -0.7254,-4.43106 3.9583,2.11951 3.99002,-2.05917 -0.79259,4.41953 z"
       inkscape:transform-center-x="0.01586535"
       inkscape:transform-center-y="0.63055488" />
    <path
       inkscape:transform-center-y="0.63055488"
       inkscape:transform-center-x="0.01586535"
       d="m 590.26823,270.96073 -4.44815,0.61191 -2.01765,4.01118 -1.95651,-4.04135 -4.43835,-0.67937 3.23896,-3.10961 -0.72541,-4.43105 3.9583,2.11951 3.99003,-2.05917 -0.7926,4.41953 z"
       inkscape:randomized="0"
       inkscape:rounded="0"
       inkscape:flatsided="false"
       sodipodi:arg2="0.95006909"
       sodipodi:arg1="0.32175055"
       sodipodi:r2="3.3807216"
       sodipodi:r1="6.7614431"
       sodipodi:cy="268.82257"
       sodipodi:cx="583.85376"
       sodipodi:sides="5"
       id="path2369"
       style="opacity:1;fill:#ffffff;fill-opacity:1;stroke:none;stroke-width:0.26458332"
       sodipodi:type="star" />
    <path
       sodipodi:type="star"
       style="opacity:1;fill:#ffffff;fill-opacity:1;stroke:none;stroke-width:0.26458332"
       id="path2371"
       sodipodi:sides="5"
       sodipodi:cx="581.58588"
       sodipodi:cy="224.97733"
       sodipodi:r1="6.7614431"
       sodipodi:r2="3.3807216"
       sodipodi:arg1="0.32175055"
       sodipodi:arg2="0.95006909"
       inkscape:flatsided="false"
       inkscape:rounded="0"
       inkscape:randomized="0"
       d="m 588.00034,227.11548 -4.44814,0.61191 -2.01765,4.01118 -1.95652,-4.04135 -4.43834,-0.67937 3.23895,-3.1096 -0.7254,-4.43106 3.9583,2.11951 3.99002,-2.05917 -0.79259,4.41953 z"
       inkscape:transform-center-x="0.044773093"
       inkscape:transform-center-y="1.7968373"
       transform="matrix(2.8221869,0,0,2.8495933,-1048.012,-405.94353)" />
    <path
       inkscape:transform-center-y="-0.16815519"
       inkscape:transform-center-x="2.9252263"
       d="m 509.74546,258.69778 -5.23363,-0.97965 -3.77405,3.75596 -0.68557,-5.28021 -4.73838,-2.42868 4.80993,-2.28369 0.84557,-5.25697 3.65827,3.86881 5.26096,-0.8203 -2.54899,4.67475 z"
       inkscape:randomized="0"
       inkscape:rounded="0"
       inkscape:flatsided="false"
       sodipodi:arg2="1.2718196"
       sodipodi:arg1="0.64350111"
       sodipodi:r2="4.0090427"
       sodipodi:r1="8.0180855"
       sodipodi:cy="253.88693"
       sodipodi:cx="503.33099"
       sodipodi:sides="5"
       id="path2373"
       style="opacity:1;fill:#ffffff;fill-opacity:1;stroke:none;stroke-width:0.26458332"
       sodipodi:type="star"
       transform="matrix(4.0083047,0,0,4.4700483,-1496.1025,-850.63129)" />
    <path
       inkscape:transform-center-y="-0.69926029"
       inkscape:transform-center-x="-0.15656402"
       d="m 280.88296,196.64674 -5.06418,-3.04252 -5.37731,2.44691 1.32869,-5.75651 -3.98883,-4.358 5.88536,-0.5152 2.91208,-5.14029 2.30866,5.4381 5.78859,1.18111 -4.45852,3.87614 z"
       inkscape:randomized="0"
       inkscape:rounded="0"
       inkscape:flatsided="false"
       sodipodi:arg2="1.6277774"
       sodipodi:arg1="0.99945885"
       sodipodi:r2="4.4482512"
       sodipodi:r1="8.8965025"
       sodipodi:cy="189.16319"
       sodipodi:cx="276.07211"
       sodipodi:sides="5"
       id="path2375"
       style="opacity:1;fill:#ffffff;fill-opacity:1;stroke:none;stroke-width:0.26458332"
       sodipodi:type="star" />
    <path
       transform="rotate(9.710126,1056.7822,99.668156)"
       sodipodi:type="star"
       style="opacity:1;fill:#ffffff;fill-opacity:1;stroke:none;stroke-width:0.26458332"
       id="path2441"
       sodipodi:sides="5"
       sodipodi:cx="335.03641"
       sodipodi:cy="171.77631"
       sodipodi:r1="8.8965025"
       sodipodi:r2="4.4482512"
       sodipodi:arg1="0.99945885"
       sodipodi:arg2="1.6277774"
       inkscape:flatsided="false"
       inkscape:rounded="0"
       inkscape:randomized="0"
       d="m 339.84726,179.25985 -5.06418,-3.04251 -5.37731,2.4469 1.32868,-5.75651 -3.98882,-4.35799 5.88535,-0.51521 2.91209,-5.14029 2.30866,5.4381 5.78859,1.18112 -4.45852,3.87613 z"
       inkscape:transform-center-x="-0.15656402"
       inkscape:transform-center-y="-0.69926029" />
  </g>
</svg>
